<svg width="28" height="28" viewBox="0 0 28 28" fill="none" xmlns="http://www.w3.org/2000/svg">
<path d="M10.667 13V20.6667C10.667 21.0445 10.7948 21.3611 11.0503 21.6167C11.3059 21.8722 11.6225 22 12.0003 22C12.3781 22 12.6948 21.8722 12.9503 21.6167C13.2059 21.3611 13.3337 21.0445 13.3337 20.6667V12.8334C13.3337 12.6778 13.317 12.5222 13.2837 12.3667C13.2503 12.2111 13.2003 12.0667 13.1337 11.9334L11.1003 7.93335C10.9225 7.60002 10.667 7.37224 10.3337 7.25002C10.0003 7.1278 9.66699 7.15558 9.33366 7.33335C9.00033 7.51113 8.77255 7.77224 8.65033 8.11669C8.5281 8.46113 8.55588 8.80002 8.73366 9.13335L10.667 13ZM17.3337 13L19.267 9.10002C19.4448 8.76669 19.4725 8.43335 19.3503 8.10002C19.2281 7.76669 19.0003 7.51113 18.667 7.33335C18.3337 7.15558 17.9948 7.1278 17.6503 7.25002C17.3059 7.37224 17.0448 7.60002 16.867 7.93335L14.867 11.9334C14.8003 12.0667 14.7503 12.2111 14.717 12.3667C14.6837 12.5222 14.667 12.6778 14.667 12.8334V20.6667C14.667 21.0445 14.7948 21.3611 15.0503 21.6167C15.3059 21.8722 15.6225 22 16.0003 22C16.3781 22 16.6948 21.8722 16.9503 21.6167C17.2059 21.3611 17.3337 21.0445 17.3337 20.6667V13ZM19.3337 15.3334C19.667 15.5111 20.0059 15.5389 20.3503 15.4167C20.6948 15.2945 20.9559 15.0667 21.1337 14.7334L22.6003 11.8C22.7781 11.4667 22.8059 11.1278 22.6837 10.7834C22.5614 10.4389 22.3337 10.1778 22.0003 10C21.667 9.82224 21.3281 9.79447 20.9837 9.91669C20.6392 10.0389 20.3781 10.2667 20.2003 10.6L18.7337 13.5667C18.5559 13.9 18.5281 14.2334 18.6503 14.5667C18.7725 14.9 19.0003 15.1556 19.3337 15.3334ZM8.66699 15.3334C9.00033 15.1556 9.2281 14.8945 9.35033 14.55C9.47255 14.2056 9.44477 13.8667 9.26699 13.5334L7.80033 10.6C7.62255 10.2667 7.36144 10.0389 7.01699 9.91669C6.67255 9.79447 6.33366 9.82224 6.00033 10C5.66699 10.1778 5.43921 10.4389 5.31699 10.7834C5.19477 11.1278 5.22255 11.4667 5.40033 11.8L6.86699 14.7334C7.04477 15.0667 7.30588 15.2945 7.65033 15.4167C7.99477 15.5389 8.33366 15.5111 8.66699 15.3334ZM14.0003 27.3334C12.1559 27.3334 10.4225 26.9834 8.80033 26.2834C7.1781 25.5834 5.76699 24.6334 4.56699 23.4334C3.36699 22.2334 2.41699 20.8222 1.71699 19.2C1.01699 17.5778 0.666992 15.8445 0.666992 14C0.666992 12.1556 1.01699 10.4222 1.71699 8.80002C2.41699 7.1778 3.36699 5.76669 4.56699 4.56669C5.76699 3.36669 7.1781 2.41669 8.80033 1.71669C10.4225 1.01669 12.1559 0.666687 14.0003 0.666687C15.8448 0.666687 17.5781 1.01669 19.2003 1.71669C20.8225 2.41669 22.2337 3.36669 23.4337 4.56669C24.6337 5.76669 25.5837 7.1778 26.2837 8.80002C26.9837 10.4222 27.3337 12.1556 27.3337 14C27.3337 15.8445 26.9837 17.5778 26.2837 19.2C25.5837 20.8222 24.6337 22.2334 23.4337 23.4334C22.2337 24.6334 20.8225 25.5834 19.2003 26.2834C17.5781 26.9834 15.8448 27.3334 14.0003 27.3334ZM14.0003 24.6667C16.9781 24.6667 19.5003 23.6334 21.567 21.5667C23.6337 19.5 24.667 16.9778 24.667 14C24.667 11.0222 23.6337 8.50002 21.567 6.43335C19.5003 4.36669 16.9781 3.33335 14.0003 3.33335C11.0225 3.33335 8.50033 4.36669 6.43366 6.43335C4.36699 8.50002 3.33366 11.0222 3.33366 14C3.33366 16.9778 4.36699 19.5 6.43366 21.5667C8.50033 23.6334 11.0225 24.6667 14.0003 24.6667Z" fill="#2A2D34"/>
</svg>
