<svg width="24" height="24" viewBox="0 0 24 24" fill="none" xmlns="http://www.w3.org/2000/svg">
<path d="M11.6616 7.6998C10.8732 7.6998 9.65276 6.8034 8.36756 6.8358C6.67196 6.8574 5.11676 7.8186 4.24196 9.3414C2.48156 12.3978 3.78836 16.9122 5.50556 19.3962C6.34796 20.6058 7.34156 21.9666 8.65916 21.9234C9.92276 21.8694 10.398 21.1026 11.9316 21.1026C13.4544 21.1026 13.8864 21.9234 15.2256 21.891C16.5864 21.8694 17.4504 20.6598 18.282 19.4394C19.2432 18.0354 19.6428 16.6746 19.6644 16.599C19.632 16.5882 17.0184 15.5838 16.986 12.5598C16.9644 10.0326 19.0488 8.823 19.146 8.769C17.958 7.0302 16.1328 6.8358 15.4956 6.7926C13.8324 6.663 12.4392 7.6998 11.6616 7.6998ZM14.4696 5.151C15.1716 4.3086 15.636 3.1314 15.5064 1.965C14.502 2.0082 13.2924 2.6346 12.5688 3.477C11.9208 4.2222 11.3592 5.421 11.5104 6.5658C12.6228 6.6522 13.7676 5.9934 14.4696 5.151Z" fill="#2A2D34"/>
</svg>
