<svg width="24" height="24" viewBox="0 0 24 24" fill="none" xmlns="http://www.w3.org/2000/svg">
<mask id="mask0_183_4057" style="mask-type:alpha" maskUnits="userSpaceOnUse" x="0" y="0" width="24" height="24">
<rect width="24" height="24" fill="#D9D9D9"/>
</mask>
<g mask="url(#mask0_183_4057)">
<path d="M19 6H17.75C17.5375 6 17.3593 5.92808 17.2155 5.78425C17.0718 5.64042 17 5.46225 17 5.24975C17 5.03708 17.0718 4.859 17.2155 4.7155C17.3593 4.57183 17.5375 4.5 17.75 4.5H19V3.25C19 3.0375 19.0719 2.85942 19.2157 2.71575C19.3596 2.57192 19.5378 2.5 19.7502 2.5C19.9629 2.5 20.141 2.57192 20.2845 2.71575C20.4282 2.85942 20.5 3.0375 20.5 3.25V4.5H21.75C21.9625 4.5 22.1406 4.57192 22.2843 4.71575C22.4281 4.85958 22.5 5.03775 22.5 5.25025C22.5 5.46292 22.4281 5.641 22.2843 5.7845C22.1406 5.92817 21.9625 6 21.75 6H20.5V7.25C20.5 7.4625 20.4281 7.64067 20.2843 7.7845C20.1404 7.92817 19.9622 8 19.7498 8C19.5371 8 19.359 7.92817 19.2155 7.7845C19.0718 7.64067 19 7.4625 19 7.25V6ZM3.3655 21.5C3.12033 21.5 2.91475 21.4138 2.74875 21.2413C2.58292 21.0689 2.5 20.8603 2.5 20.6152V15.7308C2.5 15.2336 2.677 14.808 3.031 14.454C3.385 14.1 3.81058 13.923 4.30775 13.923H4.5V9.84625C4.5 9.34908 4.677 8.9235 5.031 8.5695C5.385 8.2155 5.81058 8.0385 6.30775 8.0385H10.25V6.56925C9.9565 6.37558 9.71642 6.14833 9.52975 5.8875C9.34325 5.62667 9.25 5.31592 9.25 4.95525C9.25 4.72992 9.29333 4.51267 9.38 4.3035C9.4665 4.09433 9.59633 3.90317 9.7695 3.73L10.6788 2.82125C10.7058 2.79425 10.8137 2.74742 11.0027 2.68075C11.0342 2.68075 11.1404 2.72758 11.3212 2.82125L12.2305 3.73C12.4037 3.90317 12.5335 4.09433 12.62 4.3035C12.7067 4.51267 12.75 4.72992 12.75 4.95525C12.75 5.31592 12.6567 5.62667 12.4703 5.8875C12.2836 6.14833 12.0435 6.37558 11.75 6.56925V8.0385H15.6923C16.1894 8.0385 16.615 8.2155 16.969 8.5695C17.323 8.9235 17.5 9.34908 17.5 9.84625V13.923H17.6923C18.1894 13.923 18.615 14.1 18.969 14.454C19.323 14.808 19.5 15.2336 19.5 15.7308V20.6152C19.5 20.8603 19.4138 21.0689 19.2413 21.2413C19.0689 21.4138 18.8603 21.5 18.6152 21.5H3.3655ZM6 13.923H16V9.84625C16 9.75642 15.9712 9.68267 15.9135 9.625C15.8558 9.56733 15.7821 9.5385 15.6923 9.5385H6.30775C6.21792 9.5385 6.14417 9.56733 6.0865 9.625C6.02883 9.68267 6 9.75642 6 9.84625V13.923ZM4 20H18V15.7308C18 15.6409 17.9712 15.5672 17.9135 15.5095C17.8558 15.4518 17.7821 15.423 17.6923 15.423H4.30775C4.21792 15.423 4.14417 15.4518 4.0865 15.5095C4.02883 15.5672 4 15.6409 4 15.7308V20Z" fill="#7F8185"/>
</g>
</svg>
