<svg width="25" height="24" viewBox="0 0 25 24" fill="none" xmlns="http://www.w3.org/2000/svg">
<mask id="mask0_222_1137" style="mask-type:alpha" maskUnits="userSpaceOnUse" x="0" y="0" width="25" height="24">
<rect x="0.5" width="24" height="24" fill="#D9D9D9"/>
</mask>
<g mask="url(#mask0_222_1137)">
<path d="M12.5 22C11.1333 22 9.84167 21.7375 8.625 21.2125C7.40833 20.6875 6.34583 19.9708 5.4375 19.0625C4.52917 18.1542 3.8125 17.0917 3.2875 15.875C2.7625 14.6583 2.5 13.3667 2.5 12C2.5 10.6167 2.7625 9.31667 3.2875 8.1C3.8125 6.88333 4.52917 5.825 5.4375 4.925C6.34583 4.025 7.40833 3.3125 8.625 2.7875C9.84167 2.2625 11.1333 2 12.5 2C13.8833 2 15.1833 2.2625 16.4 2.7875C17.6167 3.3125 18.675 4.025 19.575 4.925C20.475 5.825 21.1875 6.88333 21.7125 8.1C22.2375 9.31667 22.5 10.6167 22.5 12C22.5 13.3667 22.2375 14.6583 21.7125 15.875C21.1875 17.0917 20.475 18.1542 19.575 19.0625C18.675 19.9708 17.6167 20.6875 16.4 21.2125C15.1833 21.7375 13.8833 22 12.5 22ZM12.5 4C10.65 4 9.01667 4.55417 7.6 5.6625C6.18333 6.77083 5.24167 8.18333 4.775 9.9C5.10833 9.81667 5.45417 9.65417 5.8125 9.4125C6.17083 9.17083 6.58333 8.58333 7.05 7.65C7.3 7.13333 7.66667 6.72917 8.15 6.4375C8.63333 6.14583 9.16667 6 9.75 6H15.25C15.8333 6 16.3667 6.14583 16.85 6.4375C17.3333 6.72917 17.7 7.13333 17.95 7.65C18.4167 8.6 18.8375 9.19167 19.2125 9.425C19.5875 9.65833 19.925 9.81667 20.225 9.9C19.7583 8.18333 18.8208 6.77083 17.4125 5.6625C16.0042 4.55417 14.3667 4 12.5 4ZM12.5 20C14.7333 20 16.6292 19.2167 18.1875 17.65C19.7458 16.0833 20.5167 14.1833 20.5 11.95C19.3167 11.8333 18.4083 11.4625 17.775 10.8375C17.1417 10.2125 16.6 9.45 16.15 8.55C16.0667 8.36667 15.9458 8.22917 15.7875 8.1375C15.6292 8.04583 15.4583 8 15.275 8H9.75C9.55 8 9.37083 8.04583 9.2125 8.1375C9.05417 8.22917 8.93333 8.36667 8.85 8.55C8.4 9.46667 7.85 10.2375 7.2 10.8625C6.55 11.4875 5.65 11.8583 4.5 11.975C4.5 14.2083 5.27917 16.1042 6.8375 17.6625C8.39583 19.2208 10.2833 20 12.5 20ZM9.5 14.25C9.15 14.25 8.85417 14.1292 8.6125 13.8875C8.37083 13.6458 8.25 13.35 8.25 13C8.25 12.65 8.37083 12.3542 8.6125 12.1125C8.85417 11.8708 9.15 11.75 9.5 11.75C9.85 11.75 10.1458 11.8708 10.3875 12.1125C10.6292 12.3542 10.75 12.65 10.75 13C10.75 13.35 10.6292 13.6458 10.3875 13.8875C10.1458 14.1292 9.85 14.25 9.5 14.25ZM15.5 14.25C15.15 14.25 14.8542 14.1292 14.6125 13.8875C14.3708 13.6458 14.25 13.35 14.25 13C14.25 12.65 14.3708 12.3542 14.6125 12.1125C14.8542 11.8708 15.15 11.75 15.5 11.75C15.85 11.75 16.1458 11.8708 16.3875 12.1125C16.6292 12.3542 16.75 12.65 16.75 13C16.75 13.35 16.6292 13.6458 16.3875 13.8875C16.1458 14.1292 15.85 14.25 15.5 14.25Z" fill="#AAABAE"/>
</g>
</svg>
