<svg width="33" height="32" viewBox="0 0 33 32" fill="none" xmlns="http://www.w3.org/2000/svg">
<mask id="mask0_178_3823" style="mask-type:alpha" maskUnits="userSpaceOnUse" x="0" y="0" width="33" height="32">
<rect x="0.75" width="32" height="32" fill="#D9D9D9"/>
</mask>
<g mask="url(#mask0_178_3823)">
<path d="M26.0832 10.6667C26.4609 10.6667 26.7776 10.5389 27.0332 10.2833C27.2887 10.0278 27.4165 9.7111 27.4165 9.33332C27.4165 8.95554 27.2887 8.63888 27.0332 8.38332C26.7776 8.12777 26.4609 7.99999 26.0832 7.99999C25.7054 7.99999 25.3887 8.12777 25.1332 8.38332C24.8776 8.63888 24.7498 8.95554 24.7498 9.33332C24.7498 9.7111 24.8776 10.0278 25.1332 10.2833C25.3887 10.5389 25.7054 10.6667 26.0832 10.6667ZM26.0832 13.3333C24.9498 13.3333 23.9998 12.95 23.2332 12.1833C22.4665 11.4167 22.0832 10.4667 22.0832 9.33332C22.0832 8.22221 22.4665 7.27777 23.2332 6.49999C23.9998 5.72221 24.9498 5.33332 26.0832 5.33332C27.1943 5.33332 28.1387 5.72221 28.9165 6.49999C29.6943 7.27777 30.0832 8.22221 30.0832 9.33332C30.0832 10.4667 29.6943 11.4167 28.9165 12.1833C28.1387 12.95 27.1943 13.3333 26.0832 13.3333ZM16.7498 9.33332C17.3054 9.33332 17.7776 9.14443 18.1665 8.76666C18.5554 8.38888 18.7498 7.9111 18.7498 7.33332C18.7498 6.77777 18.5554 6.30555 18.1665 5.91666C17.7776 5.52777 17.3054 5.33332 16.7498 5.33332C16.1721 5.33332 15.6943 5.52777 15.3165 5.91666C14.9387 6.30555 14.7498 6.77777 14.7498 7.33332C14.7498 7.9111 14.9387 8.38888 15.3165 8.76666C15.6943 9.14443 16.1721 9.33332 16.7498 9.33332ZM16.7498 12C15.4387 12 14.3332 11.55 13.4332 10.65C12.5332 9.74999 12.0832 8.64443 12.0832 7.33332C12.0832 6.04443 12.5332 4.94443 13.4332 4.03332C14.3332 3.12221 15.4387 2.66666 16.7498 2.66666C18.0387 2.66666 19.1387 3.12221 20.0498 4.03332C20.9609 4.94443 21.4165 6.04443 21.4165 7.33332C21.4165 8.64443 20.9609 9.74999 20.0498 10.65C19.1387 11.55 18.0387 12 16.7498 12ZM11.4165 17.8333C11.4165 18.5 11.7721 19.2778 12.4832 20.1667C13.1943 21.0555 14.6165 22.4667 16.7498 24.4C18.8387 22.5111 20.2498 21.1222 20.9832 20.2333C21.7165 19.3444 22.0832 18.5444 22.0832 17.8333C22.0832 17.3222 21.9165 16.8889 21.5832 16.5333C21.2498 16.1778 20.8387 16 20.3498 16C20.0387 16 19.7443 16.0667 19.4665 16.2C19.1887 16.3333 18.9609 16.5222 18.7832 16.7667L17.1832 18.6667H16.2832L14.6832 16.7667C14.5054 16.5222 14.2776 16.3333 13.9998 16.2C13.7221 16.0667 13.4387 16 13.1498 16C12.6387 16 12.2221 16.1778 11.8998 16.5333C11.5776 16.8889 11.4165 17.3222 11.4165 17.8333ZM8.74984 17.8333C8.74984 16.6555 9.14984 15.6111 9.94984 14.7C10.7498 13.7889 11.8165 13.3333 13.1498 13.3333C13.8387 13.3333 14.4998 13.4889 15.1332 13.8C15.7665 14.1111 16.3054 14.5333 16.7498 15.0667C17.1943 14.5333 17.7276 14.1111 18.3498 13.8C18.9721 13.4889 19.6387 13.3333 20.3498 13.3333C21.6832 13.3333 22.7498 13.7944 23.5498 14.7167C24.3498 15.6389 24.7498 16.6778 24.7498 17.8333C24.7498 19.0111 24.3221 20.1722 23.4665 21.3167C22.6109 22.4611 20.8609 24.2444 18.2165 26.6667L16.7498 28L15.2832 26.6667C12.5943 24.2222 10.8332 22.4333 9.99984 21.3C9.1665 20.1667 8.74984 19.0111 8.74984 17.8333ZM7.4165 10.6667C7.79428 10.6667 8.11095 10.5389 8.3665 10.2833C8.62206 10.0278 8.74984 9.7111 8.74984 9.33332C8.74984 8.95554 8.62206 8.63888 8.3665 8.38332C8.11095 8.12777 7.79428 7.99999 7.4165 7.99999C7.03873 7.99999 6.72206 8.12777 6.4665 8.38332C6.21095 8.63888 6.08317 8.95554 6.08317 9.33332C6.08317 9.7111 6.21095 10.0278 6.4665 10.2833C6.72206 10.5389 7.03873 10.6667 7.4165 10.6667ZM16.8498 29.3333V26.6667H27.4165V17.3333H23.4832V14.6667H27.4165C28.1498 14.6667 28.7776 14.9278 29.2998 15.45C29.8221 15.9722 30.0832 16.6 30.0832 17.3333V28C30.0832 28.3778 29.9554 28.6944 29.6998 28.95C29.4443 29.2055 29.1276 29.3333 28.7498 29.3333H16.8498ZM6.08317 26.6667H16.8498V29.3333H4.74984C4.37206 29.3333 4.05539 29.2055 3.79984 28.95C3.54428 28.6944 3.4165 28.3778 3.4165 28V17.3333C3.4165 16.6 3.67206 15.9722 4.18317 15.45C4.69428 14.9278 5.32761 14.6667 6.08317 14.6667H10.0165V17.3333H6.08317V26.6667ZM7.4165 13.3333C6.28317 13.3333 5.33317 12.95 4.5665 12.1833C3.79984 11.4167 3.4165 10.4667 3.4165 9.33332C3.4165 8.22221 3.79984 7.27777 4.5665 6.49999C5.33317 5.72221 6.28317 5.33332 7.4165 5.33332C8.52761 5.33332 9.47206 5.72221 10.2498 6.49999C11.0276 7.27777 11.4165 8.22221 11.4165 9.33332C11.4165 10.4667 11.0276 11.4167 10.2498 12.1833C9.47206 12.95 8.52761 13.3333 7.4165 13.3333Z" fill="#AAABAE"/>
</g>
</svg>
