<svg width="32" height="32" viewBox="0 0 32 32" fill="none" xmlns="http://www.w3.org/2000/svg">
<mask id="mask0_269_3946" style="mask-type:alpha" maskUnits="userSpaceOnUse" x="0" y="0" width="32" height="32">
<rect width="32" height="32" fill="#D9D9D9"/>
</mask>
<g mask="url(#mask0_269_3946)">
<path d="M6.11922 25.7418C5.80211 25.7418 5.53629 25.6349 5.32178 25.4212C5.10726 25.2075 5 24.9426 5 24.6267V17.9358C5 17.6198 5.10726 17.3549 5.32178 17.1412C5.53629 16.9275 5.80211 16.8206 6.11922 16.8206H12.8345C13.1517 16.8206 13.4175 16.9275 13.632 17.1412C13.8465 17.3549 13.9538 17.6198 13.9538 17.9358V24.6267C13.9538 24.9426 13.8465 25.2075 13.632 25.4212C13.4175 25.6349 13.1517 25.7418 12.8345 25.7418H6.11922ZM7.23844 23.5115H11.7153V19.0509H7.23844V23.5115ZM19.2421 14.0327H10.9039C10.4749 14.0327 10.1531 13.8422 9.93856 13.4612C9.72405 13.0802 9.72871 12.7038 9.95255 12.3321L14.1217 5.55758C14.3455 5.18586 14.6626 5 15.073 5C15.4834 5 15.8005 5.18586 16.0243 5.55758L20.1934 12.3321C20.4173 12.7038 20.4219 13.0802 20.2074 13.4612C19.9929 13.8422 19.6711 14.0327 19.2421 14.0327ZM12.8905 11.8024H17.2555L15.073 8.2897L12.8905 11.8024ZM26.1253 27.6933L23.9428 25.5188C23.5511 25.779 23.1267 25.9741 22.6697 26.1042C22.2127 26.2343 21.7324 26.2994 21.2287 26.2994C19.8297 26.2994 18.6405 25.8115 17.6612 24.8358C16.6819 23.86 16.1922 22.6752 16.1922 21.2812C16.1922 19.8873 16.6819 18.7024 17.6612 17.7267C18.6405 16.7509 19.8297 16.263 21.2287 16.263C22.6277 16.263 23.8169 16.7509 24.7962 17.7267C25.7755 18.7024 26.2652 19.8873 26.2652 21.2812C26.2652 21.7644 26.1999 22.2337 26.0693 22.6891C25.9388 23.1444 25.7522 23.5673 25.5097 23.9576L27.6922 26.1321C27.8974 26.3366 28 26.5968 28 26.9127C28 27.2287 27.8974 27.4889 27.6922 27.6933C27.487 27.8978 27.2259 28 26.9088 28C26.5916 28 26.3305 27.8978 26.1253 27.6933ZM21.2287 24.0691C22.0122 24.0691 22.6744 23.7996 23.2153 23.2606C23.7563 22.7216 24.0268 22.0618 24.0268 21.2812C24.0268 20.5006 23.7563 19.8408 23.2153 19.3018C22.6744 18.7628 22.0122 18.4933 21.2287 18.4933C20.4453 18.4933 19.783 18.7628 19.2421 19.3018C18.7011 19.8408 18.4307 20.5006 18.4307 21.2812C18.4307 22.0618 18.7011 22.7216 19.2421 23.2606C19.783 23.7996 20.4453 24.0691 21.2287 24.0691Z" fill="#1C1B1F"/>
</g>
</svg>
