<svg width="33" height="32" viewBox="0 0 33 32" fill="none" xmlns="http://www.w3.org/2000/svg">
<mask id="mask0_178_3805" style="mask-type:alpha" maskUnits="userSpaceOnUse" x="0" y="0" width="33" height="32">
<rect x="0.25" width="32" height="32" fill="#D9D9D9"/>
</mask>
<g mask="url(#mask0_178_3805)">
<path d="M16.2498 26.6667C19.2276 26.6667 21.7498 25.6333 23.8165 23.5667C25.8832 21.5 26.9165 18.9778 26.9165 16C26.9165 15.4667 26.8832 14.95 26.8165 14.45C26.7498 13.95 26.6276 13.4667 26.4498 13C25.9832 13.1111 25.5165 13.1944 25.0498 13.25C24.5832 13.3055 24.0943 13.3333 23.5832 13.3333C21.5609 13.3333 19.6498 12.9 17.8498 12.0333C16.0498 11.1667 14.5165 9.95555 13.2498 8.39999C12.5387 10.1333 11.5221 11.6389 10.1998 12.9167C8.87761 14.1944 7.33873 15.1555 5.58317 15.8V16C5.58317 18.9778 6.6165 21.5 8.68317 23.5667C10.7498 25.6333 13.2721 26.6667 16.2498 26.6667ZM16.2498 29.3333C14.4054 29.3333 12.6721 28.9833 11.0498 28.2833C9.42761 27.5833 8.0165 26.6333 6.8165 25.4333C5.6165 24.2333 4.6665 22.8222 3.9665 21.2C3.2665 19.5778 2.9165 17.8444 2.9165 16C2.9165 14.1555 3.2665 12.4222 3.9665 10.8C4.6665 9.17777 5.6165 7.76666 6.8165 6.56666C8.0165 5.36666 9.42761 4.41666 11.0498 3.71666C12.6721 3.01666 14.4054 2.66666 16.2498 2.66666C18.0943 2.66666 19.8276 3.01666 21.4498 3.71666C23.0721 4.41666 24.4832 5.36666 25.6832 6.56666C26.8832 7.76666 27.8332 9.17777 28.5332 10.8C29.2332 12.4222 29.5832 14.1555 29.5832 16C29.5832 17.8444 29.2332 19.5778 28.5332 21.2C27.8332 22.8222 26.8832 24.2333 25.6832 25.4333C24.4832 26.6333 23.0721 27.5833 21.4498 28.2833C19.8276 28.9833 18.0943 29.3333 16.2498 29.3333ZM14.4498 5.49999C15.3832 7.05555 16.6498 8.30555 18.2498 9.24999C19.8498 10.1944 21.6276 10.6667 23.5832 10.6667C23.8943 10.6667 24.1943 10.65 24.4832 10.6167C24.7721 10.5833 25.0721 10.5444 25.3832 10.5C24.4498 8.94443 23.1832 7.69443 21.5832 6.74999C19.9832 5.80555 18.2054 5.33332 16.2498 5.33332C15.9387 5.33332 15.6387 5.34999 15.3498 5.38332C15.0609 5.41666 14.761 5.45555 14.4498 5.49999ZM6.14984 12.6333C7.28317 11.9889 8.27206 11.1555 9.1165 10.1333C9.96095 9.1111 10.5943 7.96666 11.0165 6.69999C9.88317 7.34443 8.89428 8.17777 8.04984 9.19999C7.20539 10.2222 6.57206 11.3667 6.14984 12.6333Z" fill="#2A2D34"/>
<path d="M11.0663 18.5167C11.3886 18.8389 11.783 19 12.2497 19C12.7163 19 13.1108 18.8389 13.433 18.5167C13.7552 18.1944 13.9163 17.8 13.9163 17.3333C13.9163 16.8667 13.7552 16.4722 13.433 16.15C13.1108 15.8278 12.7163 15.6667 12.2497 15.6667C11.783 15.6667 11.3886 15.8278 11.0663 16.15C10.7441 16.4722 10.583 16.8667 10.583 17.3333C10.583 17.8 10.7441 18.1944 11.0663 18.5167Z" fill="#2A2D34"/>
<path d="M19.0663 18.5167C19.3886 18.8389 19.783 19 20.2497 19C20.7163 19 21.1108 18.8389 21.433 18.5167C21.7552 18.1944 21.9163 17.8 21.9163 17.3333C21.9163 16.8667 21.7552 16.4722 21.433 16.15C21.1108 15.8278 20.7163 15.6667 20.2497 15.6667C19.783 15.6667 19.3886 15.8278 19.0663 16.15C18.7441 16.4722 18.583 16.8667 18.583 17.3333C18.583 17.8 18.7441 18.1944 19.0663 18.5167Z" fill="#2A2D34"/>
</g>
</svg>
