<svg width="28" height="28" viewBox="0 0 28 28" fill="none" xmlns="http://www.w3.org/2000/svg">
<mask id="mask0_308_637" style="mask-type:alpha" maskUnits="userSpaceOnUse" x="0" y="0" width="28" height="28">
<rect width="28" height="28" fill="#D9D9D9"/>
</mask>
<g mask="url(#mask0_308_637)">
<path d="M13.8542 23.3334C13.932 23.3334 14.0098 23.3139 14.0875 23.275C14.1653 23.2362 14.2237 23.1973 14.2625 23.1584L23.8292 13.5917C24.0625 13.3584 24.2327 13.0959 24.3396 12.8042C24.4466 12.5125 24.5 12.2209 24.5 11.9292C24.5 11.6181 24.4466 11.3216 24.3396 11.0396C24.2327 10.7577 24.0625 10.5098 23.8292 10.2959L18.8709 5.33754C18.657 5.10421 18.4091 4.93407 18.1271 4.82712C17.8452 4.72018 17.5487 4.66671 17.2375 4.66671C16.9459 4.66671 16.6542 4.72018 16.3625 4.82712C16.0709 4.93407 15.8084 5.10421 15.575 5.33754L15.2542 5.65837L17.4125 7.84587C17.7042 8.1181 17.9181 8.42921 18.0542 8.77921C18.1903 9.12921 18.2584 9.49865 18.2584 9.88754C18.2584 10.7042 17.9813 11.3896 17.4271 11.9438C16.873 12.498 16.1875 12.775 15.3709 12.775C14.982 12.775 14.6077 12.707 14.248 12.5709C13.8882 12.4348 13.5723 12.2306 13.3 11.9584L11.1125 9.80004L6.00837 14.9042C5.95004 14.9625 5.90629 15.0257 5.87712 15.0938C5.84796 15.1618 5.83337 15.2348 5.83337 15.3125C5.83337 15.4681 5.89171 15.6091 6.00837 15.7355C6.12504 15.8618 6.26115 15.925 6.41671 15.925C6.49448 15.925 6.57226 15.9056 6.65004 15.8667C6.72782 15.8278 6.78615 15.7889 6.82504 15.75L9.97504 12.6C10.1889 12.3862 10.4563 12.2743 10.7771 12.2646C11.098 12.2549 11.375 12.3667 11.6084 12.6C11.8223 12.8139 11.9292 13.0862 11.9292 13.4167C11.9292 13.7473 11.8223 14.0195 11.6084 14.2334L8.48754 17.3834C8.42921 17.4417 8.38546 17.5049 8.35629 17.573C8.32712 17.641 8.31254 17.7139 8.31254 17.7917C8.31254 17.9473 8.37087 18.0834 8.48754 18.2C8.60421 18.3167 8.74032 18.375 8.89587 18.375C8.97365 18.375 9.05143 18.3556 9.12921 18.3167C9.20698 18.2778 9.26532 18.2389 9.30421 18.2L12.4542 15.0792C12.6681 14.8653 12.9355 14.7535 13.2563 14.7438C13.5771 14.7341 13.8542 14.8459 14.0875 15.0792C14.3014 15.2931 14.4084 15.5653 14.4084 15.8959C14.4084 16.2264 14.3014 16.4987 14.0875 16.7125L10.9667 19.8625C10.9084 19.9014 10.8646 19.9598 10.8355 20.0375C10.8063 20.1153 10.7917 20.1931 10.7917 20.2709C10.7917 20.4264 10.85 20.5625 10.9667 20.6792C11.0834 20.7959 11.2195 20.8542 11.375 20.8542C11.4528 20.8542 11.5257 20.8396 11.5938 20.8105C11.6618 20.7813 11.725 20.7375 11.7834 20.6792L14.9334 17.5584C15.1473 17.3445 15.4146 17.2327 15.7355 17.223C16.0563 17.2132 16.3334 17.325 16.5667 17.5584C16.7806 17.7723 16.8875 18.0445 16.8875 18.375C16.8875 18.7056 16.7806 18.9778 16.5667 19.1917L13.4167 22.3417C13.3584 22.4 13.3146 22.4632 13.2855 22.5313C13.2563 22.5993 13.2417 22.6723 13.2417 22.75C13.2417 22.9056 13.3049 23.0417 13.4313 23.1584C13.5577 23.275 13.6987 23.3334 13.8542 23.3334ZM13.825 25.6667C13.1056 25.6667 12.4688 25.4285 11.9146 24.9521C11.3605 24.4757 11.0348 23.8778 10.9375 23.1584C10.2764 23.0612 9.72226 22.7889 9.27504 22.3417C8.82782 21.8945 8.5556 21.3403 8.45837 20.6792C7.79726 20.582 7.24796 20.3049 6.81046 19.848C6.37296 19.391 6.1056 18.8417 6.00837 18.2C5.26948 18.1028 4.66671 17.782 4.20004 17.2375C3.73337 16.6931 3.50004 16.0514 3.50004 15.3125C3.50004 14.9237 3.57296 14.5493 3.71879 14.1896C3.86462 13.8299 4.07365 13.5139 4.34587 13.2417L9.45004 8.13754C9.89726 7.69032 10.4466 7.46671 11.098 7.46671C11.7493 7.46671 12.2987 7.69032 12.7459 8.13754L14.9334 10.325C14.9723 10.3834 15.0306 10.4271 15.1084 10.4563C15.1862 10.4855 15.2639 10.5 15.3417 10.5C15.5167 10.5 15.6625 10.4466 15.7792 10.3396C15.8959 10.2327 15.9542 10.0917 15.9542 9.91671C15.9542 9.83893 15.9396 9.76115 15.9105 9.68337C15.8813 9.6056 15.8375 9.54726 15.7792 9.50837L11.6084 5.33754C11.3945 5.10421 11.1466 4.93407 10.8646 4.82712C10.5827 4.72018 10.2862 4.66671 9.97504 4.66671C9.68337 4.66671 9.39171 4.72018 9.10004 4.82712C8.80837 4.93407 8.54587 5.10421 8.31254 5.33754L4.20004 9.47921C3.92782 9.75143 3.73337 10.0723 3.61671 10.4417C3.50004 10.8112 3.47087 11.1806 3.52921 11.55C3.58754 11.8806 3.51948 12.1723 3.32504 12.425C3.13059 12.6778 2.8681 12.8237 2.53754 12.8625C2.20698 12.9014 1.91532 12.8285 1.66254 12.6438C1.40976 12.4591 1.26393 12.2014 1.22504 11.8709C1.10837 11.132 1.16184 10.4077 1.38546 9.69796C1.60907 8.98824 1.99309 8.36115 2.53754 7.81671L6.65004 3.70421C7.11671 3.25699 7.63685 2.91671 8.21046 2.68337C8.78407 2.45004 9.37226 2.33337 9.97504 2.33337C10.5778 2.33337 11.166 2.45004 11.7396 2.68337C12.3132 2.91671 12.8237 3.25699 13.2709 3.70421L13.5917 4.02504L13.9125 3.70421C14.3792 3.25699 14.8993 2.91671 15.473 2.68337C16.0466 2.45004 16.6348 2.33337 17.2375 2.33337C17.8403 2.33337 18.4285 2.45004 19.0021 2.68337C19.5757 2.91671 20.0862 3.25699 20.5334 3.70421L25.4625 8.63337C25.9098 9.0806 26.25 9.59587 26.4834 10.1792C26.7167 10.7625 26.8334 11.3556 26.8334 11.9584C26.8334 12.5612 26.7167 13.1493 26.4834 13.723C26.25 14.2966 25.9098 14.807 25.4625 15.2542L15.8959 24.7917C15.6237 25.0639 15.3077 25.2778 14.948 25.4334C14.5882 25.5889 14.2139 25.6667 13.825 25.6667Z" fill="#AAABAE"/>
</g>
</svg>
