<svg width="28" height="28" viewBox="0 0 28 28" fill="none" xmlns="http://www.w3.org/2000/svg">
<mask id="mask0_360_1156" style="mask-type:alpha" maskUnits="userSpaceOnUse" x="0" y="0" width="28" height="28">
<rect width="28" height="28" fill="#D9D9D9"/>
</mask>
<g mask="url(#mask0_360_1156)">
<path d="M14.1171 24.5C13.7865 24.5 13.5094 24.3882 13.2858 24.1646C13.0622 23.941 12.9504 23.6639 12.9504 23.3333C12.9504 23.1972 12.9796 23.0562 13.0379 22.9104C13.0962 22.7646 13.1837 22.6333 13.3004 22.5166L18.2879 17.5291C18.4046 17.4125 18.4629 17.2715 18.4629 17.1062C18.4629 16.9409 18.4046 16.8 18.2879 16.6833C18.1712 16.5666 18.0303 16.5132 17.865 16.5229C17.6997 16.5326 17.5587 16.5958 17.4421 16.7125L12.4837 21.6708C12.3671 21.7875 12.2407 21.875 12.1046 21.9333C11.9684 21.9916 11.8226 22.0208 11.6671 22.0208C11.3365 22.0208 11.0594 21.909 10.8358 21.6854C10.6122 21.4618 10.5004 21.1847 10.5004 20.8541C10.5004 20.6597 10.5296 20.4993 10.5879 20.3729C10.6462 20.2465 10.724 20.1347 10.8212 20.0375L15.8087 15.05C15.9254 14.9333 15.9837 14.7972 15.9837 14.6416C15.9837 14.4861 15.9254 14.35 15.8087 14.2333C15.6921 14.1166 15.5559 14.0583 15.4004 14.0583C15.2448 14.0583 15.1087 14.1166 14.9921 14.2333L10.0046 19.1916C9.88789 19.3083 9.7615 19.3958 9.62539 19.4541C9.48928 19.5125 9.33372 19.5416 9.15872 19.5416C8.84761 19.5416 8.57539 19.425 8.34206 19.1916C8.10872 18.9583 7.99206 18.6861 7.99206 18.375C7.99206 18.2194 8.02122 18.0736 8.07956 17.9375C8.13789 17.8014 8.22539 17.675 8.34206 17.5583L13.3004 12.6C13.4171 12.4833 13.4754 12.3423 13.4754 12.1771C13.4754 12.0118 13.4171 11.8708 13.3004 11.7541C13.1837 11.6375 13.0476 11.5791 12.8921 11.5791C12.7365 11.5791 12.6004 11.6375 12.4837 11.7541L7.52539 16.7416C7.42817 16.8389 7.3115 16.9166 7.17539 16.975C7.03928 17.0333 6.874 17.0625 6.67956 17.0625C6.349 17.0625 6.07192 16.9507 5.84831 16.7271C5.6247 16.5034 5.51289 16.2264 5.51289 15.8958C5.51289 15.7403 5.54206 15.5944 5.60039 15.4583C5.65872 15.3222 5.74622 15.1958 5.86289 15.0791L11.5796 9.36248C11.7934 9.14859 12.0608 9.05136 12.3816 9.07081C12.7025 9.09025 12.9698 9.20692 13.1837 9.42081L16.7421 12.9791C16.9559 13.193 17.2087 13.3632 17.5004 13.4896C17.7921 13.6159 18.0837 13.6791 18.3754 13.6791C18.9976 13.6791 19.5421 13.4604 20.0087 13.0229C20.4754 12.5854 20.7087 12.0264 20.7087 11.3458C20.7087 11.0736 20.6601 10.7916 20.5629 10.5C20.4657 10.2083 20.2907 9.93609 20.0379 9.68331L16.0421 5.68748C15.8282 5.47359 15.6872 5.24025 15.6191 4.98748C15.5511 4.7347 15.5851 4.49164 15.7212 4.25831C15.8962 3.96664 16.1198 3.75275 16.3921 3.61664C16.6643 3.48053 16.9657 3.41248 17.2962 3.41248C17.7046 3.41248 18.1226 3.5097 18.5504 3.70414C18.9782 3.89859 19.3671 4.17081 19.7171 4.52081L24.6462 9.47914C24.9962 9.82914 25.2539 10.218 25.4191 10.6458C25.5844 11.0736 25.6671 11.5694 25.6671 12.1333C25.6671 12.5222 25.5796 12.9159 25.4046 13.3146C25.2296 13.7132 24.9768 14.0778 24.6462 14.4083L14.9337 24.15C14.7782 24.3055 14.6421 24.4028 14.5254 24.4416C14.4087 24.4805 14.2726 24.5 14.1171 24.5ZM3.38372 14.1458C3.01428 13.8736 2.7372 13.5479 2.55247 13.1687C2.36775 12.7896 2.27539 12.3861 2.27539 11.9583C2.27539 11.5111 2.36775 11.0736 2.55247 10.6458C2.7372 10.218 3.00456 9.82914 3.35456 9.47914L8.28372 4.52081C8.61428 4.19025 8.97886 3.93748 9.37747 3.76248C9.77609 3.58748 10.199 3.49998 10.6462 3.49998C11.1323 3.49998 11.6039 3.58748 12.0608 3.76248C12.5178 3.93748 12.9115 4.19025 13.2421 4.52081L19.2212 10.5C19.3184 10.5972 19.4011 10.7187 19.4691 10.8646C19.5372 11.0104 19.5712 11.1611 19.5712 11.3166C19.5712 11.6472 19.4594 11.9243 19.2358 12.1479C19.0122 12.3715 18.7351 12.4833 18.4046 12.4833C18.249 12.4833 18.0983 12.4493 17.9525 12.3812C17.8066 12.3132 17.6851 12.2305 17.5879 12.1333L14.0004 8.57498C13.5532 8.12775 13.0039 7.90414 12.3525 7.90414C11.7011 7.90414 11.1518 8.12775 10.7046 8.57498L5.22122 14.0583C4.96845 14.3111 4.67192 14.4423 4.33164 14.4521C3.99136 14.4618 3.67539 14.3597 3.38372 14.1458Z" fill="#F4B759"/>
</g>
</svg>
