<svg width="32" height="32" viewBox="0 0 32 32" fill="none" xmlns="http://www.w3.org/2000/svg">
<mask id="mask0_138_446" style="mask-type:alpha" maskUnits="userSpaceOnUse" x="0" y="0" width="32" height="32">
<rect width="32" height="32" fill="#D9D9D9"/>
</mask>
<g mask="url(#mask0_138_446)">
<path d="M11.9997 26.6666C11.5775 26.6666 11.1997 26.5444 10.8663 26.3C10.533 26.0555 10.2886 25.7444 10.133 25.3666L7.06634 17.3333H2.66634C2.28856 17.3333 1.9719 17.2055 1.71634 16.95C1.46079 16.6944 1.33301 16.3778 1.33301 16C1.33301 15.6222 1.46079 15.3055 1.71634 15.05C1.9719 14.7944 2.28856 14.6666 2.66634 14.6666H7.99967C8.28856 14.6666 8.53856 14.7444 8.74967 14.9C8.96079 15.0555 9.1219 15.2666 9.23301 15.5333L11.9997 22.8L18.133 6.63331C18.2886 6.25554 18.533 5.94442 18.8663 5.69998C19.1997 5.45554 19.5775 5.33331 19.9997 5.33331C20.4219 5.33331 20.7997 5.45554 21.133 5.69998C21.4663 5.94442 21.7108 6.25554 21.8663 6.63331L24.933 14.6666H29.333C29.7108 14.6666 30.0275 14.7944 30.283 15.05C30.5386 15.3055 30.6663 15.6222 30.6663 16C30.6663 16.3778 30.5386 16.6944 30.283 16.95C30.0275 17.2055 29.7108 17.3333 29.333 17.3333H23.9997C23.7108 17.3333 23.4608 17.2555 23.2497 17.1C23.0386 16.9444 22.8775 16.7333 22.7663 16.4666L19.9997 9.19998L13.8663 25.3666C13.7108 25.7444 13.4663 26.0555 13.133 26.3C12.7997 26.5444 12.4219 26.6666 11.9997 26.6666Z" fill="#2A2D34"/>
</g>
</svg>
