<svg width="33" height="32" viewBox="0 0 33 32" fill="none" xmlns="http://www.w3.org/2000/svg">
<mask id="mask0_178_3817" style="mask-type:alpha" maskUnits="userSpaceOnUse" x="0" y="0" width="33" height="32">
<rect x="0.25" width="32" height="32" fill="#D9D9D9"/>
</mask>
<g mask="url(#mask0_178_3817)">
<path d="M12.2502 25.3333H20.2502C20.6279 25.3333 20.9446 25.2055 21.2002 24.95C21.4557 24.6944 21.5835 24.3778 21.5835 24C21.5835 23.6222 21.4557 23.3055 21.2002 23.05C20.9446 22.7944 20.6279 22.6667 20.2502 22.6667H12.2502C11.8724 22.6667 11.5557 22.7944 11.3002 23.05C11.0446 23.3055 10.9168 23.6222 10.9168 24C10.9168 24.3778 11.0446 24.6944 11.3002 24.95C11.5557 25.2055 11.8724 25.3333 12.2502 25.3333ZM12.2502 21.3333H20.2502C20.6279 21.3333 20.9446 21.2055 21.2002 20.95C21.4557 20.6944 21.5835 20.3778 21.5835 20C21.5835 19.6222 21.4557 19.3055 21.2002 19.05C20.9446 18.7944 20.6279 18.6667 20.2502 18.6667H12.2502C11.8724 18.6667 11.5557 18.7944 11.3002 19.05C11.0446 19.3055 10.9168 19.6222 10.9168 20C10.9168 20.3778 11.0446 20.6944 11.3002 20.95C11.5557 21.2055 11.8724 21.3333 12.2502 21.3333ZM16.2502 7.73332C15.9835 7.39999 15.6335 7.13888 15.2002 6.94999C14.7668 6.7611 14.3168 6.66666 13.8502 6.66666C13.0502 6.66666 12.3613 6.95555 11.7835 7.53332C11.2057 8.1111 10.9168 8.79999 10.9168 9.59999C10.9168 10.7778 11.4613 11.8944 12.5502 12.95C13.6391 14.0055 14.5724 14.8889 15.3502 15.6C15.5946 15.8444 15.8946 15.9667 16.2502 15.9667C16.6057 15.9667 16.9057 15.8444 17.1502 15.6C17.9279 14.8889 18.8613 14.0055 19.9502 12.95C21.0391 11.8944 21.5835 10.7778 21.5835 9.59999C21.5835 8.79999 21.2946 8.1111 20.7168 7.53332C20.1391 6.95555 19.4502 6.66666 18.6502 6.66666C18.1835 6.66666 17.7335 6.7611 17.3002 6.94999C16.8668 7.13888 16.5168 7.39999 16.2502 7.73332ZM24.2502 29.3333H8.25016C7.51683 29.3333 6.88905 29.0722 6.36683 28.55C5.84461 28.0278 5.5835 27.4 5.5835 26.6667V5.33332C5.5835 4.59999 5.84461 3.97221 6.36683 3.44999C6.88905 2.92777 7.51683 2.66666 8.25016 2.66666H24.2502C24.9835 2.66666 25.6113 2.92777 26.1335 3.44999C26.6557 3.97221 26.9168 4.59999 26.9168 5.33332V26.6667C26.9168 27.4 26.6557 28.0278 26.1335 28.55C25.6113 29.0722 24.9835 29.3333 24.2502 29.3333ZM8.25016 26.6667H24.2502V5.33332H8.25016V26.6667Z" fill="#AAABAE"/>
</g>
</svg>
