<svg width="25" height="24" viewBox="0 0 25 24" fill="none" xmlns="http://www.w3.org/2000/svg">
<mask id="mask0_358_1118" style="mask-type:alpha" maskUnits="userSpaceOnUse" x="0" y="0" width="25" height="24">
<rect x="0.5" width="24" height="24" fill="#D9D9D9"/>
</mask>
<g mask="url(#mask0_358_1118)">
<path d="M12.5002 18C14.7336 18 16.6252 17.2208 18.1752 15.6625C19.7252 14.1042 20.5002 12.2167 20.5002 10C20.5002 9.48333 20.4586 8.9875 20.3752 8.5125C20.2919 8.0375 20.1586 7.575 19.9752 7.125C19.5252 7.40833 19.0502 7.625 18.5502 7.775C18.0502 7.925 17.5336 8 17.0002 8C16.1002 8 15.2544 7.79583 14.4627 7.3875C13.6711 6.97917 13.0169 6.4 12.5002 5.65C11.9836 6.4 11.3294 6.97917 10.5377 7.3875C9.74606 7.79583 8.90023 8 8.00023 8C7.4669 8 6.95023 7.925 6.45023 7.775C5.95023 7.625 5.47523 7.40833 5.02523 7.125C4.84189 7.575 4.70856 8.0375 4.62523 8.5125C4.54189 8.9875 4.50023 9.48333 4.50023 10C4.50023 12.2167 5.27939 14.1042 6.83773 15.6625C8.39606 17.2208 10.2836 18 12.5002 18ZM9.50023 12.25C9.85023 12.25 10.1461 12.1292 10.3877 11.8875C10.6294 11.6458 10.7502 11.35 10.7502 11C10.7502 10.65 10.6294 10.3542 10.3877 10.1125C10.1461 9.87083 9.85023 9.75 9.50023 9.75C9.15023 9.75 8.85439 9.87083 8.61273 10.1125C8.37106 10.3542 8.25023 10.65 8.25023 11C8.25023 11.35 8.37106 11.6458 8.61273 11.8875C8.85439 12.1292 9.15023 12.25 9.50023 12.25ZM15.5002 12.25C15.8502 12.25 16.1461 12.1292 16.3877 11.8875C16.6294 11.6458 16.7502 11.35 16.7502 11C16.7502 10.65 16.6294 10.3542 16.3877 10.1125C16.1461 9.87083 15.8502 9.75 15.5002 9.75C15.1502 9.75 14.8544 9.87083 14.6127 10.1125C14.3711 10.3542 14.2502 10.65 14.2502 11C14.2502 11.35 14.3711 11.6458 14.6127 11.8875C14.8544 12.1292 15.1502 12.25 15.5002 12.25ZM8.00023 6C8.9669 6 9.79189 5.65833 10.4752 4.975C11.1586 4.29167 11.5002 3.46667 11.5002 2.5V2.05C10.3669 2.18333 9.32523 2.54167 8.37523 3.125C7.42523 3.70833 6.63356 4.45 6.00023 5.35C6.30023 5.55 6.61689 5.70833 6.95023 5.825C7.28356 5.94167 7.63356 6 8.00023 6ZM17.0002 6C17.3669 6 17.7169 5.94583 18.0502 5.8375C18.3836 5.72917 18.7002 5.56667 19.0002 5.35C18.3669 4.45 17.5794 3.70833 16.6377 3.125C15.6961 2.54167 14.6502 2.18333 13.5002 2.05V2.5C13.5002 3.46667 13.8419 4.29167 14.5252 4.975C15.2086 5.65833 16.0336 6 17.0002 6ZM2.70023 22C2.11689 22 1.62523 21.7833 1.22523 21.35C0.825228 20.9167 0.650228 20.4083 0.700228 19.825L1.60023 9.95C1.73356 8.55 2.11273 7.24167 2.73773 6.025C3.36273 4.80833 4.16273 3.75417 5.13773 2.8625C6.11273 1.97083 7.22939 1.27083 8.48773 0.7625C9.74606 0.254167 11.0836 0 12.5002 0C13.9169 0 15.2544 0.254167 16.5127 0.7625C17.7711 1.27083 18.8877 1.97083 19.8627 2.8625C20.8377 3.75417 21.6377 4.80833 22.2627 6.025C22.8877 7.24167 23.2669 8.55 23.4002 9.95L24.3002 19.825C24.3502 20.4083 24.1752 20.9167 23.7752 21.35C23.3752 21.7833 22.8836 22 22.3002 22H2.70023ZM12.5002 20C10.4169 20 8.54189 19.4208 6.87523 18.2625C5.20856 17.1042 4.00023 15.6167 3.25023 13.8L2.70023 20H22.3002L21.7502 13.8C21.0002 15.6167 19.7961 17.1042 18.1377 18.2625C16.4794 19.4208 14.6002 20 12.5002 20ZM12.5002 20H22.3002H2.70023H12.5002Z" fill="#AAABAE"/>
</g>
</svg>
