<svg width="24" height="24" viewBox="0 0 24 24" fill="none" xmlns="http://www.w3.org/2000/svg">
<path d="M3.9576 7.959C4.70641 6.46792 5.85514 5.21446 7.27539 4.33872C8.69564 3.46298 10.3315 2.99947 12 3C14.4255 3 16.4631 3.891 18.021 5.3445L15.4407 7.9257C14.5074 7.0338 13.3212 6.5793 12 6.5793C9.6555 6.5793 7.671 8.1633 6.9645 10.29C6.7845 10.83 6.6819 11.406 6.6819 12C6.6819 12.594 6.7845 13.17 6.9645 13.71C7.6719 15.8376 9.6555 17.4207 12 17.4207C13.2105 17.4207 14.241 17.1012 15.0474 16.5612C15.5149 16.2534 15.9151 15.854 16.2239 15.3871C16.5326 14.9203 16.7435 14.3957 16.8438 13.845H12V10.3638H20.4762C20.5824 10.9524 20.64 11.5662 20.64 12.2043C20.64 14.9457 19.659 17.2533 17.9562 18.8193C16.4676 20.1945 14.43 21 12 21C10.818 21.0005 9.64743 20.768 8.55529 20.3159C7.46315 19.8638 6.47081 19.2008 5.63498 18.365C4.79916 17.5292 4.13625 16.5369 3.68412 15.4447C3.232 14.3526 2.99953 13.182 3 12C3 10.5474 3.3474 9.174 3.9576 7.959Z" fill="#2A2D34"/>
</svg>
