<svg width="29" height="28" viewBox="0 0 29 28" fill="none" xmlns="http://www.w3.org/2000/svg">
<mask id="mask0_178_3558" style="mask-type:alpha" maskUnits="userSpaceOnUse" x="0" y="0" width="29" height="28">
<rect x="0.200195" width="28" height="28" fill="#D9D9D9"/>
</mask>
<g mask="url(#mask0_178_3558)">
<path d="M7.20003 22.1667H10.7V16.3333C10.7 16.0028 10.8118 15.7257 11.0354 15.5021C11.2591 15.2785 11.5361 15.1667 11.8667 15.1667H16.5334C16.8639 15.1667 17.141 15.2785 17.3646 15.5021C17.5882 15.7257 17.7 16.0028 17.7 16.3333V22.1667H21.2V11.6667L14.2 6.41668L7.20003 11.6667V22.1667ZM4.8667 22.1667V11.6667C4.8667 11.2972 4.94934 10.9472 5.11462 10.6167C5.27989 10.2861 5.50837 10.0139 5.80003 9.80001L12.8 4.55001C13.2084 4.2389 13.675 4.08334 14.2 4.08334C14.725 4.08334 15.1917 4.2389 15.6 4.55001L22.6 9.80001C22.8917 10.0139 23.1202 10.2861 23.2854 10.6167C23.4507 10.9472 23.5334 11.2972 23.5334 11.6667V22.1667C23.5334 22.8083 23.3049 23.3576 22.8479 23.8146C22.391 24.2715 21.8417 24.5 21.2 24.5H16.5334C16.2028 24.5 15.9257 24.3882 15.7021 24.1646C15.4785 23.941 15.3667 23.6639 15.3667 23.3333V17.5H13.0334V23.3333C13.0334 23.6639 12.9216 23.941 12.6979 24.1646C12.4743 24.3882 12.1973 24.5 11.8667 24.5H7.20003C6.55837 24.5 6.00906 24.2715 5.55212 23.8146C5.09517 23.3576 4.8667 22.8083 4.8667 22.1667Z" fill="#AAABAE"/>
</g>
</svg>
