<svg width="29" height="28" viewBox="0 0 29 28" fill="none" xmlns="http://www.w3.org/2000/svg">
<mask id="mask0_642_1018" style="mask-type:alpha" maskUnits="userSpaceOnUse" x="0" y="0" width="29" height="28">
<rect x="0.798828" width="28" height="28" fill="#D9D9D9"/>
</mask>
<g mask="url(#mask0_642_1018)">
<path d="M6.63151 22.1667C6.30095 22.1667 6.02387 22.0549 5.80026 21.8313C5.57665 21.6077 5.46484 21.3306 5.46484 21C5.46484 20.6695 5.57665 20.3924 5.80026 20.1688C6.02387 19.9452 6.30095 19.8333 6.63151 19.8333H7.79818V11.6667C7.79818 10.0528 8.28429 8.61876 9.25651 7.36459C10.2287 6.11043 11.4926 5.2889 13.0482 4.90001V4.08334C13.0482 3.59723 13.2183 3.18404 13.5586 2.84376C13.8989 2.50348 14.3121 2.33334 14.7982 2.33334C15.2843 2.33334 15.6975 2.50348 16.0378 2.84376C16.378 3.18404 16.5482 3.59723 16.5482 4.08334V4.90001C18.1037 5.2889 19.3676 6.11043 20.3398 7.36459C21.3121 8.61876 21.7982 10.0528 21.7982 11.6667V19.8333H22.9648C23.2954 19.8333 23.5725 19.9452 23.7961 20.1688C24.0197 20.3924 24.1315 20.6695 24.1315 21C24.1315 21.3306 24.0197 21.6077 23.7961 21.8313C23.5725 22.0549 23.2954 22.1667 22.9648 22.1667H6.63151ZM14.7982 25.6667C14.1565 25.6667 13.6072 25.4382 13.1503 24.9813C12.6933 24.5243 12.4648 23.975 12.4648 23.3333H17.1315C17.1315 23.975 16.903 24.5243 16.4461 24.9813C15.9891 25.4382 15.4398 25.6667 14.7982 25.6667Z" fill="#F4B759"/>
</g>
</svg>
