<svg width="20" height="24" viewBox="0 0 20 24" fill="none" xmlns="http://www.w3.org/2000/svg">
<path d="M1.63346 20.1666C1.30291 20.1666 1.02582 20.0548 0.802214 19.8312C0.578602 19.6076 0.466797 19.3305 0.466797 19C0.466797 18.6694 0.578602 18.3923 0.802214 18.1687C1.02582 17.9451 1.30291 17.8333 1.63346 17.8333H2.80013V9.66665C2.80013 8.05276 3.28624 6.61873 4.25846 5.36456C5.23069 4.1104 6.49457 3.28887 8.05013 2.89998V2.08331C8.05013 1.5972 8.22027 1.18401 8.56055 0.84373C8.90082 0.503452 9.31402 0.333313 9.80013 0.333313C10.2862 0.333313 10.6994 0.503452 11.0397 0.84373C11.38 1.18401 11.5501 1.5972 11.5501 2.08331V2.89998C13.1057 3.28887 14.3696 4.1104 15.3418 5.36456C16.314 6.61873 16.8001 8.05276 16.8001 9.66665V17.8333H17.9668C18.2974 17.8333 18.5744 17.9451 18.798 18.1687C19.0217 18.3923 19.1335 18.6694 19.1335 19C19.1335 19.3305 19.0217 19.6076 18.798 19.8312C18.5744 20.0548 18.2974 20.1666 17.9668 20.1666H1.63346ZM9.80013 23.6666C9.15846 23.6666 8.60916 23.4382 8.15221 22.9812C7.69527 22.5243 7.4668 21.975 7.4668 21.3333H12.1335C12.1335 21.975 11.905 22.5243 11.448 22.9812C10.9911 23.4382 10.4418 23.6666 9.80013 23.6666ZM5.13346 17.8333H14.4668V9.66665C14.4668 8.38331 14.0099 7.2847 13.096 6.37081C12.1821 5.45692 11.0835 4.99998 9.80013 4.99998C8.5168 4.99998 7.41819 5.45692 6.5043 6.37081C5.59041 7.2847 5.13346 8.38331 5.13346 9.66665V17.8333Z" fill="#AAABAE"/>
</svg>
