<svg width="70" height="71" viewBox="0 0 70 71" fill="none" xmlns="http://www.w3.org/2000/svg">
<mask id="mask0_259_3256" style="mask-type:alpha" maskUnits="userSpaceOnUse" x="0" y="0" width="70" height="71">
<rect y="0.5" width="70" height="70" fill="#D9D9D9"/>
</mask>
<g mask="url(#mask0_259_3256)">
<path d="M39.0117 64.1563C39.5464 64.3021 40.1662 64.3629 40.8711 64.3386C41.576 64.3143 42.1714 64.2049 42.6576 64.0104L64.168 55.9167C64.168 54.2639 63.5846 52.8785 62.418 51.7604C61.2513 50.6424 59.8902 50.0833 58.3346 50.0833H38.3555C38.2096 50.0833 38.0395 50.0712 37.8451 50.0469C37.6506 50.0226 37.5048 49.9861 37.4076 49.9375L33.1055 48.4063C32.7166 48.2604 32.4492 48.0174 32.3034 47.6771C32.1576 47.3368 32.1332 46.9722 32.2305 46.5833C32.3277 46.2431 32.5707 45.9757 32.9596 45.7813C33.3485 45.5868 33.7374 45.5625 34.1263 45.7083L37.4076 46.9479C37.602 47.0452 37.76 47.1059 37.8815 47.1302C38.003 47.1545 38.1853 47.1667 38.4284 47.1667H46.0846C47.0082 47.1667 47.8225 46.8507 48.5273 46.2188C49.2322 45.5868 49.5846 44.7604 49.5846 43.7396C49.5846 43.059 49.378 42.4028 48.9648 41.7708C48.5517 41.1389 48.0048 40.7014 47.3242 40.4583L27.1263 32.9479C26.786 32.8507 26.4457 32.7656 26.1055 32.6927C25.7652 32.6198 25.4249 32.5833 25.0846 32.5833H20.418V58.9063L39.0117 64.1563ZM2.91797 58.8333C2.91797 60.4375 3.48915 61.8108 4.63151 62.9531C5.77387 64.0955 7.14714 64.6667 8.7513 64.6667C10.3555 64.6667 11.7287 64.0955 12.8711 62.9531C14.0135 61.8108 14.5846 60.4375 14.5846 58.8333V38.4167C14.5846 36.8125 14.0135 35.4392 12.8711 34.2969C11.7287 33.1545 10.3555 32.5833 8.7513 32.5833C7.14714 32.5833 5.77387 33.1545 4.63151 34.2969C3.48915 35.4392 2.91797 36.8125 2.91797 38.4167V58.8333Z" fill="#C4D4C1"/>
<path d="M44.5169 35.6823C45.2218 35.9497 45.9388 36.0833 46.668 36.0833C47.3971 36.0833 48.1142 35.9497 48.819 35.6823C49.5239 35.4149 50.168 35.0139 50.7513 34.4792L58.8451 26.6042C60.352 25.1458 61.6159 23.5295 62.6367 21.7552C63.6576 19.9809 64.168 18.0486 64.168 15.9583C64.168 13.2847 63.2322 11.0122 61.3607 9.14063C59.4892 7.26911 57.2166 6.33334 54.543 6.33334C52.9874 6.33334 51.5291 6.66147 50.168 7.31772C48.8069 7.97397 47.6402 8.86112 46.668 9.97918C45.6957 8.86112 44.5291 7.97397 43.168 7.31772C41.8069 6.66147 40.3485 6.33334 38.793 6.33334C36.1194 6.33334 33.8468 7.26911 31.9753 9.14063C30.1037 11.0122 29.168 13.2847 29.168 15.9583C29.168 18.0486 29.6905 19.9809 30.7357 21.7552C31.7808 23.5295 33.0569 25.1458 34.5638 26.6042L42.5846 34.4792C43.168 35.0139 43.8121 35.4149 44.5169 35.6823Z" fill="#9F6B99"/>
</g>
</svg>
