<svg width="24" height="24" viewBox="0 0 24 24" fill="none" xmlns="http://www.w3.org/2000/svg">
<mask id="mask0_244_622" style="mask-type:alpha" maskUnits="userSpaceOnUse" x="0" y="0" width="24" height="24">
<rect width="24" height="24" fill="#D9D9D9"/>
</mask>
<g mask="url(#mask0_244_622)">
<path d="M7.00002 14.423C6.32702 14.423 5.75493 14.1874 5.28377 13.7162C4.8126 13.2451 4.57702 12.673 4.57702 12C4.57702 11.327 4.8126 10.7549 5.28377 10.2837C5.75493 9.81258 6.32702 9.577 7.00002 9.577C7.67302 9.577 8.2451 9.81258 8.71627 10.2837C9.18743 10.7549 9.42302 11.327 9.42302 12C9.42302 12.673 9.18743 13.2451 8.71627 13.7162C8.2451 14.1874 7.67302 14.423 7.00002 14.423ZM7.00002 17.3652C8.20002 17.3652 9.26702 17.0243 10.201 16.3422C11.135 15.6602 11.7654 14.7962 12.0923 13.75H13.6923L14.877 14.8095C14.9642 14.8838 15.0565 14.9387 15.154 14.974C15.2513 15.0093 15.3571 15.027 15.4713 15.027C15.5853 15.027 15.691 15.0093 15.7885 14.974C15.886 14.9387 15.9783 14.8807 16.0655 14.8L17.3943 13.625L18.875 14.7788C18.9687 14.8493 19.0716 14.9038 19.1838 14.9423C19.2959 14.9808 19.409 14.9917 19.523 14.975C19.6372 14.9583 19.7436 14.9257 19.8423 14.877C19.9411 14.8282 20.0289 14.7602 20.1058 14.673L21.952 12.6172C22.0354 12.5237 22.0962 12.4251 22.1345 12.3213C22.173 12.2174 22.1923 12.1052 22.1923 11.9845C22.1923 11.864 22.1705 11.7544 22.127 11.6558C22.0834 11.5571 22.0199 11.4661 21.9365 11.3828L21.075 10.5212C20.9814 10.4276 20.8784 10.359 20.7663 10.3155C20.6541 10.2718 20.5378 10.25 20.4173 10.25H12.0923C11.7756 9.24483 11.158 8.391 10.2395 7.6885C9.32085 6.986 8.24102 6.63475 7.00002 6.63475C5.50002 6.63475 4.23077 7.15392 3.19227 8.19225C2.15393 9.23075 1.63477 10.5 1.63477 12C1.63477 13.5 2.15393 14.7692 3.19227 15.8077C4.23077 16.8461 5.50002 17.3652 7.00002 17.3652Z" fill="#55575D"/>
</g>
</svg>
