<svg width="32" height="32" viewBox="0 0 32 32" fill="none" xmlns="http://www.w3.org/2000/svg">
<mask id="mask0_269_3928" style="mask-type:alpha" maskUnits="userSpaceOnUse" x="0" y="0" width="32" height="32">
<rect width="32" height="32" fill="#D9D9D9"/>
</mask>
<g mask="url(#mask0_269_3928)">
<path d="M16 29.3333C15.2667 29.3333 14.6389 29.0722 14.1167 28.55C13.5944 28.0278 13.3333 27.4 13.3333 26.6667H18.6667C18.6667 27.4 18.4056 28.0278 17.8833 28.55C17.3611 29.0722 16.7333 29.3333 16 29.3333ZM12 25.3333C11.6222 25.3333 11.3056 25.2056 11.05 24.95C10.7944 24.6944 10.6667 24.3778 10.6667 24C10.6667 23.6222 10.7944 23.3056 11.05 23.05C11.3056 22.7944 11.6222 22.6667 12 22.6667H20C20.3778 22.6667 20.6944 22.7944 20.95 23.05C21.2056 23.3056 21.3333 23.6222 21.3333 24C21.3333 24.3778 21.2056 24.6944 20.95 24.95C20.6944 25.2056 20.3778 25.3333 20 25.3333H12ZM11 21.3333C9.46667 20.4222 8.25 19.2 7.35 17.6667C6.45 16.1333 6 14.4667 6 12.6667C6 9.88889 6.97222 7.52777 8.91667 5.58333C10.8611 3.63889 13.2222 2.66666 16 2.66666C18.7778 2.66666 21.1389 3.63889 23.0833 5.58333C25.0278 7.52777 26 9.88889 26 12.6667C26 14.4667 25.55 16.1333 24.65 17.6667C23.75 19.2 22.5333 20.4222 21 21.3333H11ZM11.8 18.6667H20.2C21.2 17.9556 21.9722 17.0778 22.5167 16.0333C23.0611 14.9889 23.3333 13.8667 23.3333 12.6667C23.3333 10.6222 22.6222 8.88889 21.2 7.46666C19.7778 6.04444 18.0444 5.33333 16 5.33333C13.9556 5.33333 12.2222 6.04444 10.8 7.46666C9.37778 8.88889 8.66667 10.6222 8.66667 12.6667C8.66667 13.8667 8.93889 14.9889 9.48333 16.0333C10.0278 17.0778 10.8 17.9556 11.8 18.6667Z" fill="#1C1B1F"/>
</g>
</svg>
