<svg width="29" height="28" viewBox="0 0 29 28" fill="none" xmlns="http://www.w3.org/2000/svg">
<mask id="mask0_504_3232" style="mask-type:alpha" maskUnits="userSpaceOnUse" x="0" y="0" width="29" height="28">
<rect x="0.398438" width="28" height="28" fill="#D9D9D9"/>
</mask>
<g mask="url(#mask0_504_3232)">
<path d="M6.23086 4.66669H22.5642C22.8947 4.66669 23.1718 4.77849 23.3954 5.0021C23.6191 5.22571 23.7309 5.5028 23.7309 5.83335C23.7309 6.16391 23.6191 6.44099 23.3954 6.6646C23.1718 6.88821 22.8947 7.00002 22.5642 7.00002H6.23086C5.9003 7.00002 5.62322 6.88821 5.39961 6.6646C5.176 6.44099 5.06419 6.16391 5.06419 5.83335C5.06419 5.5028 5.176 5.22571 5.39961 5.0021C5.62322 4.77849 5.9003 4.66669 6.23086 4.66669ZM6.23086 23.3334C5.9003 23.3334 5.62322 23.2215 5.39961 22.9979C5.176 22.7743 5.06419 22.4972 5.06419 22.1667V16.3334H4.86003C4.49058 16.3334 4.18919 16.1924 3.95586 15.9104C3.72253 15.6285 3.64475 15.3028 3.72253 14.9334L4.88919 9.10002C4.94753 8.8278 5.08364 8.60419 5.29753 8.42919C5.51141 8.25419 5.75447 8.16669 6.02669 8.16669H22.7684C23.0406 8.16669 23.2836 8.25419 23.4975 8.42919C23.7114 8.60419 23.8475 8.8278 23.9059 9.10002L25.0725 14.9334C25.1503 15.3028 25.0725 15.6285 24.8392 15.9104C24.6059 16.1924 24.3045 16.3334 23.935 16.3334H23.7309V22.1667C23.7309 22.4972 23.6191 22.7743 23.3954 22.9979C23.1718 23.2215 22.8947 23.3334 22.5642 23.3334C22.2336 23.3334 21.9566 23.2215 21.7329 22.9979C21.5093 22.7743 21.3975 22.4972 21.3975 22.1667V16.3334H16.7309V22.1667C16.7309 22.4972 16.6191 22.7743 16.3954 22.9979C16.1718 23.2215 15.8947 23.3334 15.5642 23.3334H6.23086ZM7.39753 21H14.3975V16.3334H7.39753V21Z" fill="#F4B759"/>
</g>
</svg>
