<svg width="29" height="28" viewBox="0 0 29 28" fill="none" xmlns="http://www.w3.org/2000/svg">
<mask id="mask0_477_2537" style="mask-type:alpha" maskUnits="userSpaceOnUse" x="0" y="0" width="29" height="28">
<rect x="0.400391" width="28" height="28" fill="#D9D9D9"/>
</mask>
<g mask="url(#mask0_477_2537)">
<path d="M6.23379 4.66669H22.5671C22.8977 4.66669 23.1748 4.77849 23.3984 5.0021C23.622 5.22571 23.7338 5.5028 23.7338 5.83335C23.7338 6.16391 23.622 6.44099 23.3984 6.6646C23.1748 6.88821 22.8977 7.00002 22.5671 7.00002H6.23379C5.90323 7.00002 5.62615 6.88821 5.40254 6.6646C5.17893 6.44099 5.06712 6.16391 5.06712 5.83335C5.06712 5.5028 5.17893 5.22571 5.40254 5.0021C5.62615 4.77849 5.90323 4.66669 6.23379 4.66669ZM6.23379 23.3334C5.90323 23.3334 5.62615 23.2215 5.40254 22.9979C5.17893 22.7743 5.06712 22.4972 5.06712 22.1667V16.3334H4.86296C4.49351 16.3334 4.19212 16.1924 3.95879 15.9104C3.72546 15.6285 3.64768 15.3028 3.72546 14.9334L4.89212 9.10002C4.95046 8.8278 5.08657 8.60419 5.30046 8.42919C5.51434 8.25419 5.7574 8.16669 6.02962 8.16669H22.7713C23.0435 8.16669 23.2866 8.25419 23.5005 8.42919C23.7143 8.60419 23.8505 8.8278 23.9088 9.10002L25.0755 14.9334C25.1532 15.3028 25.0755 15.6285 24.8421 15.9104C24.6088 16.1924 24.3074 16.3334 23.938 16.3334H23.7338V22.1667C23.7338 22.4972 23.622 22.7743 23.3984 22.9979C23.1748 23.2215 22.8977 23.3334 22.5671 23.3334C22.2366 23.3334 21.9595 23.2215 21.7359 22.9979C21.5123 22.7743 21.4005 22.4972 21.4005 22.1667V16.3334H16.7338V22.1667C16.7338 22.4972 16.622 22.7743 16.3984 22.9979C16.1748 23.2215 15.8977 23.3334 15.5671 23.3334H6.23379ZM7.40046 21H14.4005V16.3334H7.40046V21ZM6.29212 14H22.5088L21.8088 10.5H6.99212L6.29212 14Z" fill="#AAABAE"/>
</g>
</svg>
