<svg width="24" height="24" viewBox="0 0 24 24" fill="none" xmlns="http://www.w3.org/2000/svg">
<mask id="mask0_822_1092" style="mask-type:alpha" maskUnits="userSpaceOnUse" x="0" y="0" width="24" height="24">
<rect width="24" height="24" fill="#D9D9D9"/>
</mask>
<g mask="url(#mask0_822_1092)">
<path d="M12 2C12.8333 2 13.5417 2.29167 14.125 2.875C14.7083 3.45833 15 4.16667 15 5C15 5.83333 14.7083 6.54167 14.125 7.125C13.5417 7.70833 12.8333 8 12 8C11.1667 8 10.4583 7.70833 9.875 7.125C9.29167 6.54167 9 5.83333 9 5C9 4.16667 9.29167 3.45833 9.875 2.875C10.4583 2.29167 11.1667 2 12 2ZM12 9C12.7833 9 13.5583 9.09167 14.325 9.275C15.0917 9.45833 15.7833 9.71667 16.4 10.05C17.0333 10.3667 17.5417 10.7417 17.925 11.175C18.3083 11.6083 18.5 12.0833 18.5 12.6V18.4C18.5 18.9333 18.3458 19.4083 18.0375 19.825C17.7292 20.2417 17.325 20.45 16.825 20.45C16.575 20.45 16.3583 20.3542 16.175 20.1625C15.9917 19.9708 15.9 19.7 15.9 19.35V18.95C15.9 18.3167 15.4625 17.8 14.5875 17.4C13.7125 17 12.85 16.8 12 16.8C11.35 16.8 10.7083 16.9042 10.075 17.1125C9.44167 17.3208 8.94167 17.6083 8.575 17.975C8.44167 18.1083 8.40833 18.2792 8.475 18.4875C8.54167 18.6958 8.68333 18.8333 8.9 18.9C9.43333 19.05 9.97083 19.1583 10.5125 19.225C11.0542 19.2917 11.6167 19.3333 12.2 19.35C12.5667 19.35 12.8792 19.4792 13.1375 19.7375C13.3958 19.9958 13.525 20.3083 13.525 20.675C13.525 21.0417 13.3958 21.3542 13.1375 21.6125C12.8792 21.8708 12.5667 22 12.2 22C11.6167 22 10.9417 21.9333 10.175 21.8C9.40833 21.6667 8.675 21.4583 7.975 21.175C7.275 20.8917 6.6875 20.5208 6.2125 20.0625C5.7375 19.6042 5.5 19.05 5.5 18.4V12.6C5.5 12.0833 5.69167 11.6083 6.075 11.175C6.45833 10.7417 6.95833 10.3667 7.575 10.05C8.20833 9.71667 8.90833 9.45833 9.675 9.275C10.4417 9.09167 11.2167 9 12 9ZM12 15C12.55 15 13.0208 14.8042 13.4125 14.4125C13.8042 14.0208 14 13.55 14 13C14 12.45 13.8042 11.9792 13.4125 11.5875C13.0208 11.1958 12.55 11 12 11C11.45 11 10.9792 11.1958 10.5875 11.5875C10.1958 11.9792 10 12.45 10 13C10 13.55 10.1958 14.0208 10.5875 14.4125C10.9792 14.8042 11.45 15 12 15Z" fill="#2A2D34"/>
</g>
</svg>
