<svg width="33" height="32" viewBox="0 0 33 32" fill="none" xmlns="http://www.w3.org/2000/svg">
<mask id="mask0_178_3811" style="mask-type:alpha" maskUnits="userSpaceOnUse" x="0" y="0" width="33" height="32">
<rect x="0.75" width="32" height="32" fill="#D9D9D9"/>
</mask>
<g mask="url(#mask0_178_3811)">
<path d="M23.35 27.5333L24.8833 26L22.75 23.8667L21.2167 25.4C20.9056 25.7111 20.75 26.0667 20.75 26.4667C20.75 26.8667 20.9056 27.2222 21.2167 27.5333C21.5278 27.8445 21.8833 28 22.2833 28C22.6833 28 23.0389 27.8445 23.35 27.5333ZM26.75 24.1333L28.2833 22.6C28.5944 22.2889 28.75 21.9333 28.75 21.5333C28.75 21.1333 28.5944 20.7778 28.2833 20.4667C27.9722 20.1556 27.6167 20 27.2167 20C26.8167 20 26.4611 20.1556 26.15 20.4667L24.6167 22L26.75 24.1333ZM25.25 29.4333C24.4278 30.2556 23.4389 30.6667 22.2833 30.6667C21.1278 30.6667 20.1389 30.2556 19.3167 29.4333C18.4944 28.6111 18.0833 27.6222 18.0833 26.4667C18.0833 25.3111 18.4944 24.3222 19.3167 23.5L24.25 18.5667C25.0722 17.7445 26.0611 17.3333 27.2167 17.3333C28.3722 17.3333 29.3611 17.7445 30.1833 18.5667C31.0056 19.3889 31.4167 20.3778 31.4167 21.5333C31.4167 22.6889 31.0056 23.6778 30.1833 24.5L25.25 29.4333ZM7.41667 28C6.68333 28 6.05556 27.7389 5.53333 27.2167C5.01111 26.6945 4.75 26.0667 4.75 25.3333V6.66668C4.75 5.93334 5.01111 5.30557 5.53333 4.78334C6.05556 4.26112 6.68333 4.00001 7.41667 4.00001H13.0167C13.3056 3.20001 13.7889 2.55557 14.4667 2.06668C15.1444 1.57779 15.9056 1.33334 16.75 1.33334C17.5944 1.33334 18.3556 1.57779 19.0333 2.06668C19.7111 2.55557 20.1944 3.20001 20.4833 4.00001H26.0833C26.8167 4.00001 27.4444 4.26112 27.9667 4.78334C28.4889 5.30557 28.75 5.93334 28.75 6.66668V14.8333C28.3056 14.7222 27.8611 14.6667 27.4167 14.6667C26.9722 14.6667 26.5278 14.7 26.0833 14.7667V6.66668H7.41667V25.3333H15.5167C15.45 25.7778 15.4167 26.2222 15.4167 26.6667C15.4167 27.1111 15.4722 27.5556 15.5833 28H7.41667ZM16.75 5.66668C17.0389 5.66668 17.2778 5.57223 17.4667 5.38334C17.6556 5.19445 17.75 4.95557 17.75 4.66668C17.75 4.37779 17.6556 4.1389 17.4667 3.95001C17.2778 3.76112 17.0389 3.66668 16.75 3.66668C16.4611 3.66668 16.2222 3.76112 16.0333 3.95001C15.8444 4.1389 15.75 4.37779 15.75 4.66668C15.75 4.95557 15.8444 5.19445 16.0333 5.38334C16.2222 5.57223 16.4611 5.66668 16.75 5.66668ZM10.0833 12V9.33334H23.4167V12H10.0833ZM10.0833 17.3333V14.6667H23.4167V15.8C23.2389 15.9111 23.0667 16.0389 22.9 16.1833C22.7333 16.3278 22.5611 16.4889 22.3833 16.6667L21.7167 17.3333H10.0833ZM10.0833 22.6667V20H19.05L17.4167 21.6333C17.2389 21.8111 17.0778 21.9833 16.9333 22.15C16.7889 22.3167 16.6611 22.4889 16.55 22.6667H10.0833Z" fill="#AAABAE"/>
</g>
</svg>
