<svg width="29" height="28" viewBox="0 0 29 28" fill="none" xmlns="http://www.w3.org/2000/svg">
<mask id="mask0_360_1150" style="mask-type:alpha" maskUnits="userSpaceOnUse" x="0" y="0" width="29" height="28">
<rect x="0.600586" width="28" height="28" fill="#D9D9D9"/>
</mask>
<g mask="url(#mask0_360_1150)">
<path d="M14.6003 18.6666C15.5336 18.6666 16.3648 18.3896 17.094 17.8354C17.8232 17.2812 18.353 16.5666 18.6836 15.6916H10.5169C10.8475 16.5666 11.3773 17.2812 12.1065 17.8354C12.8357 18.3896 13.6669 18.6666 14.6003 18.6666ZM11.6836 14C12.1697 14 12.5829 13.8298 12.9232 13.4896C13.2635 13.1493 13.4336 12.7361 13.4336 12.25C13.4336 11.7639 13.2635 11.3507 12.9232 11.0104C12.5829 10.6701 12.1697 10.5 11.6836 10.5C11.1975 10.5 10.7843 10.6701 10.444 11.0104C10.1037 11.3507 9.93359 11.7639 9.93359 12.25C9.93359 12.7361 10.1037 13.1493 10.444 13.4896C10.7843 13.8298 11.1975 14 11.6836 14ZM17.5169 14C18.003 14 18.4162 13.8298 18.7565 13.4896C19.0968 13.1493 19.2669 12.7361 19.2669 12.25C19.2669 11.7639 19.0968 11.3507 18.7565 11.0104C18.4162 10.6701 18.003 10.5 17.5169 10.5C17.0308 10.5 16.6176 10.6701 16.2773 11.0104C15.9371 11.3507 15.7669 11.7639 15.7669 12.25C15.7669 12.7361 15.9371 13.1493 16.2773 13.4896C16.6176 13.8298 17.0308 14 17.5169 14ZM9.49609 7.46665L12.7628 3.23748C12.9961 2.92637 13.2732 2.6979 13.594 2.55206C13.9148 2.40623 14.2503 2.33331 14.6003 2.33331C14.9503 2.33331 15.2857 2.40623 15.6065 2.55206C15.9273 2.6979 16.2044 2.92637 16.4378 3.23748L19.7044 7.46665L24.6628 9.12915C25.1683 9.2847 25.5669 9.57151 25.8586 9.98956C26.1503 10.4076 26.2961 10.8694 26.2961 11.375C26.2961 11.6083 26.2621 11.8416 26.194 12.075C26.126 12.3083 26.0141 12.5319 25.8586 12.7458L22.6503 17.2958L22.7669 22.0791C22.7864 22.7597 22.5628 23.3333 22.0961 23.8C21.6294 24.2666 21.085 24.5 20.4628 24.5C20.4239 24.5 20.21 24.4708 19.8211 24.4125L14.6003 22.9541L9.37943 24.4125C9.2822 24.4514 9.17526 24.4757 9.05859 24.4854C8.94193 24.4951 8.83498 24.5 8.73776 24.5C8.11554 24.5 7.57109 24.2666 7.10443 23.8C6.63776 23.3333 6.41415 22.7597 6.43359 22.0791L6.55026 17.2666L3.37109 12.7458C3.21554 12.5319 3.10373 12.3083 3.03568 12.075C2.96762 11.8416 2.93359 11.6083 2.93359 11.375C2.93359 10.8889 3.07457 10.4368 3.35651 10.0187C3.63845 9.60067 4.0322 9.30415 4.53776 9.12915L9.49609 7.46665ZM10.9253 9.47915L5.26693 11.3458L8.88359 16.5666L8.76693 22.1375L14.6003 20.5333L20.4336 22.1666L20.3169 16.5666L23.9336 11.4041L18.2753 9.47915L14.6003 4.66665L10.9253 9.47915Z" fill="#AAABAE"/>
</g>
</svg>
