<svg width="29" height="28" viewBox="0 0 29 28" fill="none" xmlns="http://www.w3.org/2000/svg">
<mask id="mask0_178_3563" style="mask-type:alpha" maskUnits="userSpaceOnUse" x="0" y="0" width="29" height="28">
<rect x="0.600098" width="28" height="28" fill="#D9D9D9"/>
</mask>
<g mask="url(#mask0_178_3563)">
<path d="M14.6007 18.6667C15.5341 18.6667 16.3653 18.3896 17.0945 17.8355C17.8237 17.2813 18.3535 16.5667 18.6841 15.6917H10.5174C10.848 16.5667 11.3778 17.2813 12.107 17.8355C12.8362 18.3896 13.6674 18.6667 14.6007 18.6667ZM11.6841 14C12.1702 14 12.5834 13.8299 12.9237 13.4896C13.2639 13.1493 13.4341 12.7362 13.4341 12.25C13.4341 11.7639 13.2639 11.3507 12.9237 11.0105C12.5834 10.6702 12.1702 10.5 11.6841 10.5C11.198 10.5 10.7848 10.6702 10.4445 11.0105C10.1042 11.3507 9.93408 11.7639 9.93408 12.25C9.93408 12.7362 10.1042 13.1493 10.4445 13.4896C10.7848 13.8299 11.198 14 11.6841 14ZM17.5174 14C18.0035 14 18.4167 13.8299 18.757 13.4896C19.0973 13.1493 19.2674 12.7362 19.2674 12.25C19.2674 11.7639 19.0973 11.3507 18.757 11.0105C18.4167 10.6702 18.0035 10.5 17.5174 10.5C17.0313 10.5 16.6181 10.6702 16.2778 11.0105C15.9376 11.3507 15.7674 11.7639 15.7674 12.25C15.7674 12.7362 15.9376 13.1493 16.2778 13.4896C16.6181 13.8299 17.0313 14 17.5174 14ZM9.49658 7.46671L12.7632 3.23754C12.9966 2.92643 13.2737 2.69796 13.5945 2.55212C13.9153 2.40629 14.2507 2.33337 14.6007 2.33337C14.9507 2.33337 15.2862 2.40629 15.607 2.55212C15.9278 2.69796 16.2049 2.92643 16.4382 3.23754L19.7049 7.46671L24.6632 9.12921C25.1688 9.28476 25.5674 9.57157 25.8591 9.98962C26.1507 10.4077 26.2966 10.8695 26.2966 11.375C26.2966 11.6084 26.2626 11.8417 26.1945 12.075C26.1264 12.3084 26.0146 12.532 25.8591 12.7459L22.6507 17.2959L22.7674 22.0792C22.7869 22.7598 22.5633 23.3334 22.0966 23.8C21.6299 24.2667 21.0855 24.5 20.4633 24.5C20.4244 24.5 20.2105 24.4709 19.8216 24.4125L14.6007 22.9542L9.37992 24.4125C9.28269 24.4514 9.17575 24.4757 9.05908 24.4855C8.94242 24.4952 8.83547 24.5 8.73825 24.5C8.11603 24.5 7.57158 24.2667 7.10492 23.8C6.63825 23.3334 6.41464 22.7598 6.43408 22.0792L6.55075 17.2667L3.37158 12.7459C3.21603 12.532 3.10422 12.3084 3.03617 12.075C2.96811 11.8417 2.93408 11.6084 2.93408 11.375C2.93408 10.8889 3.07505 10.4368 3.357 10.0188C3.63894 9.60074 4.03269 9.30421 4.53825 9.12921L9.49658 7.46671Z" fill="#F4B759"/>
</g>
</svg>
