<svg width="14" height="15" viewBox="0 0 14 15" fill="none" xmlns="http://www.w3.org/2000/svg">
<mask id="mask0_244_645" style="mask-type:alpha" maskUnits="userSpaceOnUse" x="0" y="0" width="14" height="15">
<rect y="0.5" width="14" height="14" fill="#D9D9D9"/>
</mask>
<g mask="url(#mask0_244_645)">
<path d="M6.47467 9.25H7.52467C7.61217 9.25 7.68752 9.21354 7.75072 9.14062C7.81391 9.06771 7.83579 8.9875 7.81634 8.9L7.53926 7.36875C7.7337 7.27153 7.88683 7.13055 7.99863 6.94583C8.11044 6.76111 8.16634 6.55694 8.16634 6.33333C8.16634 6.0125 8.0521 5.73785 7.82363 5.50937C7.59516 5.2809 7.32051 5.16667 6.99967 5.16667C6.67884 5.16667 6.40419 5.2809 6.17572 5.50937C5.94724 5.73785 5.83301 6.0125 5.83301 6.33333C5.83301 6.55694 5.88891 6.76111 6.00072 6.94583C6.11252 7.13055 6.26565 7.27153 6.46009 7.36875L6.18301 8.9C6.16356 8.9875 6.18544 9.06771 6.24863 9.14062C6.31183 9.21354 6.38717 9.25 6.47467 9.25ZM6.99967 13.275C6.93162 13.275 6.86842 13.2701 6.81009 13.2604C6.75176 13.2507 6.69342 13.2361 6.63509 13.2167C5.32259 12.7792 4.27745 11.9698 3.49967 10.7885C2.7219 9.60729 2.33301 8.33611 2.33301 6.975V4.21875C2.33301 3.97569 2.40349 3.75694 2.54447 3.5625C2.68544 3.36805 2.86773 3.22708 3.09134 3.13958L6.59134 1.82708C6.72745 1.77847 6.86356 1.75417 6.99967 1.75417C7.13579 1.75417 7.2719 1.77847 7.40801 1.82708L10.908 3.13958C11.1316 3.22708 11.3139 3.36805 11.4549 3.5625C11.5959 3.75694 11.6663 3.97569 11.6663 4.21875V6.975C11.6663 8.33611 11.2775 9.60729 10.4997 10.7885C9.7219 11.9698 8.67676 12.7792 7.36426 13.2167C7.30592 13.2361 7.24759 13.2507 7.18926 13.2604C7.13092 13.2701 7.06773 13.275 6.99967 13.275Z" fill="#F8845C"/>
</g>
</svg>
