<svg width="28" height="16" viewBox="0 0 28 16" fill="none" xmlns="http://www.w3.org/2000/svg">
<path d="M8.66699 13.3333C10.1337 13.3333 11.3892 12.8111 12.4337 11.7667C13.4781 10.7222 14.0003 9.46667 14.0003 8C14.0003 6.53333 13.4781 5.27778 12.4337 4.23333C11.3892 3.18889 10.1337 2.66667 8.66699 2.66667C7.20033 2.66667 5.94477 3.18889 4.90033 4.23333C3.85588 5.27778 3.33366 6.53333 3.33366 8C3.33366 9.46667 3.85588 10.7222 4.90033 11.7667C5.94477 12.8111 7.20033 13.3333 8.66699 13.3333ZM8.66699 16C6.44477 16 4.55588 15.2222 3.00033 13.6667C1.44477 12.1111 0.666992 10.2222 0.666992 8C0.666992 5.77778 1.44477 3.88889 3.00033 2.33333C4.55588 0.777778 6.44477 0 8.66699 0C10.667 0 12.4059 0.633333 13.8837 1.9C15.3614 3.16667 16.2559 4.75556 16.567 6.66667H26.0003C26.3781 6.66667 26.6948 6.79444 26.9503 7.05C27.2059 7.30556 27.3337 7.62222 27.3337 8C27.3337 8.37778 27.2059 8.69444 26.9503 8.95C26.6948 9.20556 26.3781 9.33333 26.0003 9.33333H16.567C16.2559 11.2444 15.3614 12.8333 13.8837 14.1C12.4059 15.3667 10.667 16 8.66699 16Z" fill="#2A2D34"/>
</svg>
