<svg width="32" height="34" viewBox="0 0 32 34" fill="none" xmlns="http://www.w3.org/2000/svg">
<path d="M2.49747 0.125C1.56764 0.125 0.8125 0.874335 0.8125 1.79866V32.2013C0.8125 33.1067 1.56303 33.875 2.48886 33.875H29.5111C30.4367 33.875 31.1875 33.1138 31.1875 32.1748L31.187 8.5625L22.75 0.125H2.49747ZM13.4688 9.40625H16.8438C16.8438 13.608 20.4611 18.1144 24.9711 19.6178L24.1989 22.8894C18.9082 22.1335 13.4385 24.3919 8.49856 27.6854L6.50832 24.9635C8.34126 23.4972 10.0987 21.009 11.4015 18.1026C12.6998 15.2067 13.4688 12.0683 13.4688 9.40625ZM14.4813 19.4833C14.9323 18.4769 15.3323 17.4325 15.6687 16.3731C16.4647 17.5959 17.4433 18.7182 18.5485 19.6921C16.8917 19.9887 15.2686 20.4756 13.6971 21.0966C13.975 20.5679 14.2367 20.0287 14.4813 19.4833Z" fill="#FF3B30"/>
</svg>
