<svg width="22" height="22" viewBox="0 0 22 22" fill="none" xmlns="http://www.w3.org/2000/svg">
<path d="M2.99967 21.6667C2.26634 21.6667 1.63856 21.4056 1.11634 20.8833C0.594119 20.3611 0.333008 19.7333 0.333008 19V16.3333C0.333008 15.9556 0.460786 15.6389 0.716341 15.3833C0.971897 15.1278 1.28856 15 1.66634 15C2.04412 15 2.36079 15.1278 2.61634 15.3833C2.8719 15.6389 2.99967 15.9556 2.99967 16.3333V19H18.9997V16.3333C18.9997 15.9556 19.1275 15.6389 19.383 15.3833C19.6386 15.1278 19.9552 15 20.333 15C20.7108 15 21.0275 15.1278 21.283 15.3833C21.5386 15.6389 21.6663 15.9556 21.6663 16.3333V19C21.6663 19.7333 21.4052 20.3611 20.883 20.8833C20.3608 21.4056 19.733 21.6667 18.9997 21.6667H2.99967ZM9.66634 5.46667L7.16634 7.96667C6.89967 8.23334 6.58301 8.36111 6.21634 8.35C5.84967 8.33889 5.53301 8.2 5.26634 7.93334C5.0219 7.66667 4.89412 7.35556 4.88301 7C4.8719 6.64445 4.99967 6.33333 5.26634 6.06667L10.0663 1.26667C10.1997 1.13333 10.3441 1.03889 10.4997 0.983335C10.6552 0.927779 10.8219 0.900002 10.9997 0.900002C11.1775 0.900002 11.3441 0.927779 11.4997 0.983335C11.6552 1.03889 11.7997 1.13333 11.933 1.26667L16.733 6.06667C16.9997 6.33333 17.1275 6.64445 17.1163 7C17.1052 7.35556 16.9775 7.66667 16.733 7.93334C16.4663 8.2 16.1497 8.33889 15.783 8.35C15.4163 8.36111 15.0997 8.23334 14.833 7.96667L12.333 5.46667V15C12.333 15.3778 12.2052 15.6944 11.9497 15.95C11.6941 16.2056 11.3775 16.3333 10.9997 16.3333C10.6219 16.3333 10.3052 16.2056 10.0497 15.95C9.79412 15.6944 9.66634 15.3778 9.66634 15V5.46667Z" fill="#2A2D34"/>
</svg>
